<?xml version="1.0" encoding="utf-8" ?>
<svg baseProfile="full" height="30" version="1.1" width="30" xmlns="http://www.w3.org/2000/svg" xmlns:ev="http://www.w3.org/2001/xml-events" xmlns:xlink="http://www.w3.org/1999/xlink"><defs /><rect fill="white" height="30" opacity="1.0" width="30" x="0.0" y="0.0" /><g><polygon fill="red" opacity="0.75" points="15.0,17.5 17.3776413,15.7725425 16.4694631,12.9774575 13.5305368,12.9774575 12.6223587,15.7725425 15.0,17.5" /><circle cx="15.0" cy="15.0" fill="green" opacity="0.75" r="2.5" /><polygon fill="green" opacity="0.5" points="15.0,20.0 17.3776413,18.2725425 16.4694631,15.4774575 13.5305368,15.4774575 12.6223587,18.2725425 15.0,20.0" transform="rotate(90,15.0,17.5)" /><polygon fill="green" opacity="0.75" points="17.3776413,18.2725425 19.7552826,16.545085 18.8471044,13.75 15.9081781,13.75 15.0,16.545085 17.3776413,18.2725425" transform="rotate(90,17.3776413,15.7725425)" /><polygon fill="red" opacity="0.25" points="16.4694631,15.4774575 18.8471044,13.75 17.938926199999997,10.954915 14.999999899999999,10.954915 14.091821799999998,13.75 16.4694631,15.4774575" transform="rotate(90,16.4694631,12.9774575)" /><polygon fill="green" opacity="0.5" points="13.5305368,15.4774575 15.9081781,13.75 14.9999999,10.954915 12.0610736,10.954915 11.1528955,13.75 13.5305368,15.4774575" transform="rotate(90,13.5305368,12.9774575)" /><polygon fill="red" opacity="1.0" points="12.6223587,18.2725425 15.0,16.545085 14.0918218,13.75 11.1528955,13.75 10.244717399999999,16.545085 12.6223587,18.2725425" transform="rotate(90,12.6223587,15.7725425)" /></g></svg>